<svg width="38" height="38" viewBox="0 0 38 38" fill="none" xmlns="http://www.w3.org/2000/svg">
<path d="M30.9101 13.1799C34.2681 13.1799 37 10.4478 37 7.08994C37 3.73208 34.2681 1 30.9101 1C27.5522 1 24.8203 3.73208 24.8203 7.08994C24.8203 8.52237 25.3206 9.83836 26.1514 10.8795L23.6819 13.3487C22.41 12.2931 20.7781 11.6572 19 11.6572C17.0526 11.6572 15.2848 12.4244 13.9691 13.6659L11.5385 11.2351C12.5533 10.1467 13.1797 8.69175 13.1797 7.08994C13.1797 3.73208 10.4478 1 7.08994 1C3.73186 1 1 3.73208 1 7.08994C1 10.4478 3.73186 13.1799 7.08994 13.1799C8.52237 13.1799 9.83836 12.6795 10.8795 11.8487L13.3487 14.3181C12.2931 15.59 11.6572 17.2219 11.6572 19C11.6572 20.9473 12.4244 22.7152 13.6659 24.0309L11.235 26.4614C10.1467 25.4466 8.69175 24.8201 7.08994 24.8201C3.73186 24.8201 1 27.5522 1 30.9101C1 34.2679 3.73186 37 7.08994 37C10.4478 37 13.1797 34.2679 13.1797 30.9101C13.1797 29.4776 12.6794 28.1616 11.8486 27.1205L14.3181 24.6513C15.59 25.7069 17.2219 26.3428 19 26.3428C20.9474 26.3428 22.7152 25.5756 24.0309 24.3341L26.4615 26.7649C25.4467 27.8532 24.8203 29.3083 24.8203 30.9101C24.8203 34.2679 27.5522 37 30.9101 37C34.2681 37 37 34.2679 37 30.9101C37 27.5522 34.2681 24.8201 30.9101 24.8201C29.4776 24.8201 28.1616 25.3205 27.1205 26.1513L24.6513 23.6819C25.7069 22.41 26.3428 20.7781 26.3428 19C26.3428 17.0527 25.5756 15.2848 24.3341 13.9691L26.765 11.5386C27.8533 12.5534 29.3083 13.1799 30.9101 13.1799ZM27.8262 11.2544C27.8859 9.58933 29.2556 8.25229 30.9351 8.25229C32.6024 8.25229 33.964 9.57011 34.0422 11.2184C33.1705 11.8814 32.0872 12.2799 30.9101 12.2799C29.7545 12.2799 28.6896 11.8956 27.8262 11.2544ZM29.2221 5.63931C29.2221 4.69492 29.9905 3.92632 30.9351 3.92632C31.8797 3.92632 32.6481 4.69492 32.6481 5.63931C32.6481 6.58369 31.8797 7.35229 30.9351 7.35229C29.9905 7.35229 29.2221 6.58369 29.2221 5.63931ZM30.9101 1.9C33.7718 1.9 36.1 4.22822 36.1 7.08994C36.1 8.37894 35.6248 9.55709 34.844 10.4656C34.5571 9.22121 33.6923 8.19681 32.5462 7.69235C33.155 7.21356 33.5481 6.47223 33.5481 5.63931C33.5481 4.19834 32.3759 3.02632 30.9351 3.02632C29.4944 3.02632 28.3221 4.19834 28.3221 5.63931C28.3221 6.47223 28.7152 7.21356 29.324 7.69235C28.1647 8.20266 27.2918 9.2445 27.0152 10.5084C26.2118 9.59422 25.7203 8.39973 25.7203 7.08994C25.7203 4.22822 28.0483 1.9 30.9101 1.9ZM1.9 7.08994C1.9 4.22822 4.22822 1.9 7.08994 1.9C9.95166 1.9 12.2797 4.22822 12.2797 7.08994C12.2797 8.37899 11.8044 9.55717 11.0237 10.4657C10.7368 9.22126 9.87195 8.19684 8.72589 7.69235C9.33467 7.21356 9.72776 6.47223 9.72776 5.63931C9.72776 4.19834 8.55552 3.02632 7.11477 3.02632C5.67402 3.02632 4.50178 4.19834 4.50178 5.63931C4.50178 6.47223 4.89487 7.21356 5.50365 7.69235C4.34438 8.20266 3.47146 9.24447 3.19482 10.5083C2.3915 9.59416 1.9 8.39968 1.9 7.08994ZM5.40178 5.63931C5.40178 4.69492 6.17017 3.92632 7.11477 3.92632C8.05937 3.92632 8.82776 4.69492 8.82776 5.63931C8.82776 6.58369 8.05937 7.35229 7.11477 7.35229C6.17017 7.35229 5.40178 6.58369 5.40178 5.63931ZM4.00583 11.2543C4.06565 9.58925 5.43532 8.25229 7.11477 8.25229C8.78214 8.25229 10.1437 9.57016 10.2219 11.2185C9.35021 11.8814 8.26704 12.2799 7.08994 12.2799C5.93429 12.2799 4.86927 11.8955 4.00583 11.2543ZM4.00586 35.0745C4.0659 33.4095 5.43546 32.0724 7.11477 32.0724C8.78197 32.0724 10.1435 33.3905 10.2219 35.0386C9.35024 35.7015 8.26704 36.1 7.08994 36.1C5.93429 36.1 4.8693 35.7157 4.00586 35.0745ZM5.40178 29.4594C5.40178 28.515 6.17017 27.7464 7.11477 27.7464C8.05937 27.7464 8.82776 28.515 8.82776 29.4594C8.82776 30.4038 8.05937 31.1724 7.11477 31.1724C6.17017 31.1724 5.40178 30.4038 5.40178 29.4594ZM11.0237 34.2859C10.7367 33.0413 9.87187 32.0169 8.72589 31.5125C9.33467 31.0337 9.72776 30.2924 9.72776 29.4594C9.72776 28.0185 8.55552 26.8464 7.11477 26.8464C5.67402 26.8464 4.50178 28.0185 4.50178 29.4594C4.50178 30.2924 4.89487 31.0337 5.50365 31.5125C4.34443 32.0228 3.47157 33.0646 3.19488 34.3285C2.39153 33.4144 1.9 32.2198 1.9 30.9101C1.9 28.0483 4.22822 25.7201 7.08994 25.7201C9.95166 25.7201 12.2797 28.0483 12.2797 30.9101C12.2797 32.1991 11.8044 33.3773 11.0237 34.2859ZM15.1286 24.1376C15.1766 22.0253 16.9067 20.3206 19.0305 20.3206C21.1396 20.3206 22.8591 22.0019 22.9301 24.0938C21.841 24.936 20.4801 25.4428 19 25.4428C17.5462 25.4428 16.2079 24.953 15.1286 24.1376ZM16.837 17.2272C16.837 16.0174 17.8209 15.0335 19.0305 15.0335C20.2401 15.0335 21.2241 16.0174 21.2241 17.2272C21.2241 18.4366 20.2401 19.4206 19.0305 19.4206C17.8209 19.4206 16.837 18.4366 16.837 17.2272ZM27.8262 35.0746C27.8862 33.4096 29.2558 32.0724 30.9351 32.0724C32.6023 32.0724 33.9638 33.3904 34.0422 35.0385C33.1705 35.7015 32.0872 36.1 30.9101 36.1C29.7545 36.1 28.6896 35.7157 27.8262 35.0746ZM29.2221 29.4594C29.2221 28.515 29.9905 27.7464 30.9351 27.7464C31.8797 27.7464 32.6481 28.515 32.6481 29.4594C32.6481 30.4038 31.8797 31.1724 30.9351 31.1724C29.9905 31.1724 29.2221 30.4038 29.2221 29.4594ZM36.1 30.9101C36.1 32.1991 35.6248 33.3773 34.844 34.2858C34.557 33.0413 33.6922 32.0169 32.5462 31.5125C33.155 31.0337 33.5481 30.2924 33.5481 29.4594C33.5481 28.0185 32.3759 26.8464 30.9351 26.8464C29.4944 26.8464 28.3221 28.0185 28.3221 29.4594C28.3221 30.2924 28.7152 31.0337 29.324 31.5125C28.1647 32.0228 27.2919 33.0646 27.0152 34.3286C26.2119 33.4144 25.7203 32.2199 25.7203 30.9101C25.7203 28.0483 28.0483 25.7201 30.9101 25.7201C33.7718 25.7201 36.1 28.0483 36.1 30.9101ZM23.7508 23.3367C23.4434 21.7035 22.3085 20.3619 20.7986 19.7618C21.5987 19.202 22.1241 18.2755 22.1241 17.2272C22.1241 15.5213 20.7363 14.1335 19.0305 14.1335C17.3248 14.1335 15.937 15.5213 15.937 17.2272C15.937 18.2754 16.4624 19.202 17.2624 19.7618C15.735 20.3688 14.5928 21.7352 14.3013 23.394C13.223 22.2417 12.5572 20.6988 12.5572 19C12.5572 15.4475 15.4475 12.5572 19 12.5572C22.5525 12.5572 25.4428 15.4475 25.4428 19C25.4428 20.671 24.798 22.1906 23.7508 23.3367Z" fill="#00AC69"/>
</svg>
