<svg width="42" height="42" viewBox="0 0 42 42" fill="none" xmlns="http://www.w3.org/2000/svg">
<path d="M27.72 21C27.72 22.3291 27.3259 23.6283 26.5875 24.7334C25.8491 25.8385 24.7996 26.6999 23.5716 27.2085C22.3437 27.7171 20.9925 27.8502 19.689 27.5909C18.3854 27.3316 17.1881 26.6916 16.2482 25.7518C15.3084 24.8119 14.6684 23.6146 14.4091 22.311C14.1498 21.0075 14.2829 19.6563 14.7915 18.4284C15.3001 17.2004 16.1615 16.1509 17.2666 15.4125C18.3717 14.6741 19.6709 14.28 21 14.28C22.7816 14.282 24.4897 14.9907 25.7495 16.2505C27.0093 17.5103 27.718 19.2184 27.72 21ZM42 11.76V30.24C41.9965 33.3579 40.7563 36.347 38.5517 38.5517C36.347 40.7563 33.3579 41.9965 30.24 42H11.76C8.64214 41.9965 5.65299 40.7563 3.44832 38.5517C1.24366 36.347 0.0035311 33.3579 0 30.24V11.76C0.0035311 8.64214 1.24366 5.65299 3.44832 3.44832C5.65299 1.24366 8.64214 0.0035311 11.76 0H30.24C33.3579 0.0035311 36.347 1.24366 38.5517 3.44832C40.7563 5.65299 41.9965 8.64214 42 11.76ZM31.08 21C31.08 19.0064 30.4888 17.0575 29.3812 15.3999C28.2736 13.7422 26.6993 12.4502 24.8574 11.6873C23.0156 10.9244 20.9888 10.7247 19.0335 11.1137C17.0782 11.5026 15.2821 12.4627 13.8724 13.8724C12.4627 15.2821 11.5026 17.0782 11.1137 19.0335C10.7247 20.9888 10.9244 23.0156 11.6873 24.8574C12.4502 26.6993 13.7422 28.2736 15.3999 29.3812C17.0575 30.4888 19.0064 31.08 21 31.08C23.6725 31.077 26.2346 30.014 28.1243 28.1243C30.014 26.2346 31.077 23.6725 31.08 21ZM34.44 10.08C34.44 9.58159 34.2922 9.09437 34.0153 8.67996C33.7384 8.26555 33.3448 7.94256 32.8844 7.75182C32.4239 7.56109 31.9172 7.51119 31.4284 7.60842C30.9395 7.70566 30.4905 7.94566 30.1381 8.29809C29.7857 8.65052 29.5457 9.09954 29.4484 9.58837C29.3512 10.0772 29.4011 10.5839 29.5918 11.0444C29.7826 11.5048 30.1056 11.8984 30.52 12.1753C30.9344 12.4522 31.4216 12.6 31.92 12.6C32.5883 12.6 33.2293 12.3345 33.7019 11.8619C34.1745 11.3893 34.44 10.7483 34.44 10.08Z" fill="#00AC69"/>
</svg>
