<svg xmlns="http://www.w3.org/2000/svg" width="43" height="20" fill="none" viewBox="0 0 43 20"><path fill="#fff" d="M14.073 10C9.593 1.738 0 1.97 0 1.97c2.97 1.062 7.298 8.464 7.344 8.552 4.483 8.261 14.077 8.025 14.077 8.025-2.975-1.064-7.298-8.458-7.348-8.545m21.541-.712c-4.477-8.264-14.06-8.028-14.06-8.028 2.955 1.061 7.29 8.46 7.333 8.549 4.481 8.263 14.07 8.025 14.07 8.025-2.972-1.064-7.297-8.458-7.343-8.544m-10.228.224c.061.107 5.184 8.882 8.706 10.146 0 0-11.38.283-16.69-9.52-.06-.1-5.196-8.882-8.705-10.141 0 0 11.37-.278 16.69 9.517"/></svg>