<svg width="43" height="20" viewBox="0 0 43 20" fill="none" xmlns="http://www.w3.org/2000/svg">
<path d="M14.0725 10.0006C9.59369 1.737 0 1.96941 0 1.96941C2.96917 3.03211 7.29772 10.4335 7.34422 10.5216C11.8266 18.7832 21.4205 18.5472 21.4205 18.5472C18.4457 17.4825 14.1226 10.0886 14.0725 10.0023" fill="white"/>
<path d="M35.6138 9.28972C31.1369 1.02625 21.5542 1.26241 21.5542 1.26241C24.5087 2.32323 28.8447 9.72283 28.8872 9.81091C33.368 18.0743 42.9561 17.8363 42.9561 17.8363C39.985 16.7717 35.6603 9.3778 35.6138 9.29169" fill="white"/>
<path d="M25.3861 9.51627C25.4474 9.62306 30.5698 18.3984 34.0916 19.6617C34.0916 19.6617 22.7118 19.9446 17.4022 10.1423C17.3429 10.0412 12.2056 1.26028 8.69678 0.000797115C8.69678 0.000797115 20.0673 -0.276601 25.3861 9.51824" fill="white"/>
</svg>
