<svg width="496" height="326" viewBox="0 0 496 326" fill="none" xmlns="http://www.w3.org/2000/svg">
<path d="M86.7154 322.558C87.4758 299.273 79.6176 282.053 60.8381 272.502C78.8782 262.36 87.2646 245.52 86.8632 227.644L60.9226 227.792C60.1198 247.295 45.9032 262.93 26.5321 262.17L26.1519 227.031L0 227.116V322.833L26.3632 322.769L26.4265 284.461C34.8551 283.828 44.2132 285.159 49.8957 290.821C58.4721 299.379 60.7958 310.366 60.9014 322.812L86.7365 322.558H86.7154Z" fill="#592B84"/>
<path d="M362.26 276.686C362.26 270.03 366.971 259.762 372.442 256.972C380.469 252.873 389.215 252.894 397.728 253V227.645L374.026 229.124C353.62 230.413 337.143 248.795 336.89 269.946L336.256 322.749L362.175 322.854L362.239 276.707L362.26 276.686Z" fill="#592B84"/>
<path d="M170.58 229.905V280.616C169.883 292.491 161.348 301.048 150.11 300.9C139.907 300.773 130.211 292.131 130.169 280.405L130.021 229.82H104.292L104.207 280.51C104.165 305.612 121.761 323.868 146.392 325.749C174.065 327.862 196.647 308.676 196.563 280.574L196.436 229.863L170.58 229.905Z" fill="#592B84"/>
<path d="M313.377 322.497L288.831 323.025L285.409 316.58C270.305 328.413 251.018 328.244 235.027 318.862C221.381 310.854 212.741 294.225 212.783 276.35C212.847 258.326 221.339 241.824 235.048 233.795C251.04 224.455 270.136 224.286 285.303 236.077L288.746 229.78L313.272 229.717L313.377 322.497ZM288.556 276.329C288.556 262.51 277.339 251.29 263.524 251.29C249.709 251.29 238.492 262.51 238.492 276.329C238.492 290.147 249.709 301.367 263.524 301.367C277.339 301.367 288.556 290.147 288.556 276.329Z" fill="#592B84"/>
<path d="M496 322.453L472.193 323.087L468.94 316.135C453.941 328.348 434.507 328.221 418.516 319.093C404.384 311.043 395.976 294.456 395.955 276.306C395.913 258.071 404.511 241.654 418.579 233.519C435.246 223.884 455.315 224.898 468.898 236.73L472.214 229.61L495.958 229.905L496 322.432V322.453ZM471.601 276.348C471.601 262.53 460.406 251.31 446.569 251.31C432.733 251.31 421.537 262.508 421.537 276.348C421.537 290.188 432.733 301.387 446.569 301.387C460.406 301.387 471.601 290.188 471.601 276.348Z" fill="#592B84"/>
<path d="M86.7153 322.558L60.8803 322.812C60.7747 310.387 58.451 299.379 49.8745 290.821C44.1921 285.159 34.834 283.849 26.4054 284.461L26.342 322.769L0 322.833V227.116L26.1519 227.031L26.5321 262.17C45.9031 262.952 60.1198 247.295 60.9225 227.792L86.8632 227.644C87.2857 245.52 78.8994 262.339 60.8381 272.502C79.6387 282.053 87.4969 299.273 86.7153 322.558Z" fill="#592B84"/>
<path d="M170.58 229.906L196.436 229.863L196.563 280.574C196.626 308.677 174.065 327.862 146.392 325.749C121.783 323.869 104.165 305.613 104.207 280.511L104.292 229.863H130.021L130.169 280.426C130.211 292.153 139.907 300.795 150.11 300.922C161.348 301.07 169.883 292.513 170.58 280.638V229.927V229.906Z" fill="#592B84"/>
<path d="M362.262 276.688L362.199 322.835L336.279 322.729L336.913 269.926C337.166 248.776 353.644 230.393 374.05 229.104L397.772 227.625V252.981C389.238 252.875 380.493 252.875 372.465 256.953C366.973 259.742 362.283 270.011 362.283 276.667L362.262 276.688Z" fill="#592B84"/>
<path d="M330.764 19.735L329.94 57.2823C323.096 33.5749 309.915 13.7342 288.621 0.0633888L287.692 14.2413C261.646 -0.5705 231.945 0.232425 207.652 15.0443L207.208 0C185.873 13.9033 172.628 33.4904 165.868 57.2401L164.917 19.9252C135.111 56.2681 136.04 107 165.002 142.35L165.847 104.761C172.733 128.489 185.83 148.224 207.272 162.022L207.842 147.062C233.043 162.487 263.04 161.895 287.882 147.696L288.833 161.81C310.781 147.59 323.075 128.024 330.004 104.761L330.807 142.287C360.296 106.747 360.233 55.3384 330.807 19.7139L330.764 19.735ZM249.267 130.665C221.678 131.215 198.822 110.022 198.146 81.0954L297.747 81.0531C297.515 108.648 275.25 130.158 249.246 130.665H249.267Z" fill="#43A9A0"/>
</svg>
