<svg width="42" height="40" viewBox="0 0 42 40" fill="none" xmlns="http://www.w3.org/2000/svg">
<path d="M0 4.63485C0 3.29139 0.472986 2.18305 1.41892 1.30985C2.36485 0.436603 3.59461 0 5.10811 0C6.59461 0 7.79728 0.429872 8.71622 1.2897C9.66215 2.17636 10.1351 3.33169 10.1351 4.75576C10.1351 6.04545 9.67569 7.12018 8.75676 7.98C7.81082 8.86667 6.56757 9.31 5.02703 9.31H4.98649C3.49999 9.31 2.29731 8.86667 1.37838 7.98C0.459446 7.09333 0 5.97827 0 4.63485ZM0.527027 39.9V12.9776H9.52703V39.9H0.527027ZM14.5135 39.9H23.5135V24.867C23.5135 23.9265 23.6216 23.2011 23.8378 22.6906C24.2162 21.7771 24.7905 21.0046 25.5608 20.3732C26.3311 19.7418 27.2973 19.4261 28.4595 19.4261C31.4865 19.4261 33 21.4546 33 25.5118V39.9H42V24.4639C42 20.4874 41.0541 17.4714 39.1622 15.4159C37.2703 13.3605 34.7703 12.3327 31.6622 12.3327C28.1757 12.3327 25.4595 13.8239 23.5135 16.8064V16.887H23.473L23.5135 16.8064V12.9776H14.5135C14.5676 13.8374 14.5946 16.5108 14.5946 20.9979C14.5946 25.4849 14.5676 31.7856 14.5135 39.9Z" fill="#00AC69"/>
</svg>
