<svg width="166" height="20" viewBox="0 0 166 20" fill="none" xmlns="http://www.w3.org/2000/svg">
<path d="M61.5568 2.29688L57.8291 14.8842L54.0216 2.29688H50.663L48.1499 18.1717H50.8206L52.7253 5.87856L56.453 18.1717H59.0975L62.8272 5.87856L64.7301 18.1717H67.4284L64.9415 2.29688H61.5568Z" fill="white"/>
<path d="M83.4268 2.29688L79.6991 14.8842L75.8916 2.29688H72.5329L70.02 18.1717H72.6906L74.5952 5.87856L78.3229 18.1717H80.9674L84.6971 5.87856L86.6 18.1717H89.2983L86.8114 2.29688H83.4268Z" fill="white"/>
<path d="M100.008 9.09151V11.2937H102.391V15.687C101.755 15.9549 101.043 16.0617 100.064 16.0617C96.9701 16.0617 94.5908 13.764 94.5908 10.2367C94.5908 6.70945 96.8923 4.49024 100.064 4.49024C101.783 4.49024 103.396 5.105 104.507 6.14709V3.2345C103.239 2.46045 101.705 2.03125 99.9319 2.03125C95.2789 2.03125 91.8145 5.37114 91.8145 10.2348C91.8145 15.0984 95.1193 18.4383 100.012 18.4383C101.942 18.4383 103.847 18.0373 105.09 17.2631V9.09151H100.008Z" fill="white"/>
<path d="M117.86 16.1669C117.517 16.1669 116.96 16.1405 116.458 16.088V11.303H118.151C120.293 11.303 121.693 11.9704 121.693 13.6816C121.693 15.3927 120.397 16.1669 117.86 16.1669ZM116.458 4.40965C116.88 4.35718 117.489 4.30283 117.938 4.30283C119.868 4.30283 121.057 5.05065 121.057 6.60058C121.057 8.23132 119.92 9.0859 117.724 9.0859H116.456V4.40965H116.458ZM120.662 9.99486C122.433 9.72688 123.73 8.3925 123.73 6.44137C123.73 3.39568 121.508 2.03125 117.78 2.03125C116.591 2.03125 114.976 2.19243 113.839 2.35174V18.1198C114.87 18.279 116.246 18.414 117.515 18.414C122.407 18.414 124.416 16.5978 124.416 13.8165C124.416 11.5186 122.91 10.1822 120.66 9.99486" fill="white"/>
<path d="M133.962 16.2998C133.485 16.3804 132.93 16.4328 132.534 16.4328C130.946 16.4328 129.837 15.953 129.837 14.7217C129.837 13.4903 131.028 12.9861 132.851 12.9861H133.962V16.2998ZM132.139 6.06641C130.685 6.06641 129.362 6.44128 128.331 7.02788V9.32561C129.31 8.76522 130.367 8.36423 131.716 8.36423C133.064 8.36423 133.963 8.9528 133.963 10.2348V11.2243H132.667C129.282 11.2243 127.246 12.3995 127.246 14.804C127.246 17.4767 129.468 18.4121 132.508 18.4121C133.83 18.4121 135.416 18.2247 136.527 17.9323V10.1016C136.527 7.13468 134.701 6.06641 132.137 6.06641" fill="white"/>
<path d="M145.97 6.06641C144.25 6.06641 142.242 6.44128 140.601 7.08227V18.1721H143.219V8.81783C143.907 8.60404 144.833 8.47103 145.758 8.47103C147.212 8.47103 148.271 9.08581 148.271 10.7969V18.1721H150.862V10.5552C150.862 7.21527 148.957 6.06641 145.97 6.06641Z" fill="white"/>
<path d="M165.366 18.1726L160.104 11.7046L165.26 6.33303H162.035L157.605 11.1929V0H154.986V18.1726H157.605V12.4L162.245 18.1726H165.366Z" fill="white"/>
<path d="M14.0725 10.3365C9.59369 2.07293 0 2.30535 0 2.30535C2.96917 3.36804 7.29772 10.7694 7.34422 10.8575C11.8266 19.1191 21.4205 18.8831 21.4205 18.8831C18.4457 17.8185 14.1226 10.4246 14.0725 10.3383" fill="white"/>
<path d="M35.6138 9.62566C31.1369 1.36219 21.5542 1.59835 21.5542 1.59835C24.5087 2.65917 28.8447 10.0588 28.8872 10.1468C33.368 18.4103 42.9561 18.1722 42.9561 18.1722C39.985 17.1076 35.6603 9.71374 35.6138 9.62763" fill="white"/>
<path d="M25.3861 9.8522C25.4474 9.959 30.5698 18.7344 34.0916 19.9976C34.0916 19.9976 22.7118 20.2806 17.4022 10.4782C17.3429 10.3771 12.2056 1.59622 8.69678 0.336735C8.69678 0.336735 20.0673 0.059336 25.3861 9.85417" fill="white"/>
</svg>
