<svg width="43" height="20" viewBox="0 0 43 20" fill="none" xmlns="http://www.w3.org/2000/svg">
<style>
  path {
    fill: #00AC69;
  }
  @media (prefers-color-scheme: dark) {
    path {
      fill: #FFFFFF;
    }
  }
</style>
<path d="M14.0725 10.0006C9.59369 1.737 0 1.96941 0 1.96941C2.96917 3.03211 7.29772 10.4335 7.34422 10.5216C11.8266 18.7832 21.4205 18.5472 21.4205 18.5472C18.4457 17.4825 14.1226 10.0886 14.0725 10.0023"/>
<path d="M35.6133 9.28582C31.1364 1.02235 21.5537 1.2585 21.5537 1.2585C24.5082 2.31933 28.8442 9.71892 28.8867 9.807C33.3675 18.0704 42.9556 17.8324 42.9556 17.8324C39.9845 16.7678 35.6598 9.3739 35.6133 9.28779"/>
<path d="M25.3856 9.51627C25.4469 9.62306 30.5693 18.3984 34.0911 19.6617C34.0911 19.6617 22.7113 19.9446 17.4017 10.1423C17.3424 10.0412 12.2051 1.26028 8.69629 0.000797115C8.69629 0.000797115 20.0668 -0.276601 25.3856 9.51824"/>
</svg>
